<svg xmlns="http://www.w3.org/2000/svg" viewBox="0 0 600 600"><defs><linearGradient id="bg" x1="0" y1="0" x2="0" y2="1"><stop offset="0" stop-color="#efe9dc"/><stop offset="1" stop-color="#ddd3bf"/></linearGradient><linearGradient id="b" x1="0" y1="0" x2="1" y2="1"><stop offset="0" stop-color="#8a5a34"/><stop offset="1" stop-color="#5e3a1f"/></linearGradient></defs>
<rect width="600" height="600" fill="url(#bg)"/><ellipse cx="300" cy="455" rx="220" ry="20" fill="#000" opacity=".1"/>
<path d="M190 150 L320 140 L335 300 Q420 310 480 340 Q515 360 515 395 L515 410 L100 410 L100 360 Q100 330 130 310 L170 290 Z" fill="url(#b)"/>
<path d="M190 150 L320 140 L322 175 L192 185 Z" fill="#3e2613"/>
<path d="M100 410 L515 410 L515 440 Q515 450 505 450 L110 450 Q100 450 100 440 Z" fill="#2b2b2b"/>
<path d="M100 425 L515 425" stroke="#4a4a4a" stroke-width="4"/>
<g stroke="#e8c16a" stroke-width="7" stroke-linecap="round"><path d="M230 200 L300 195"/><path d="M232 230 L304 224"/><path d="M234 260 L308 254"/><path d="M238 290 L320 284"/></g>
<path d="M330 300 Q420 310 480 340" stroke="#3e2613" stroke-width="6" fill="none"/><path d="M130 310 Q180 345 250 350 L335 352" stroke="#3e2613" stroke-width="5" fill="none"/>
<circle cx="440" cy="380" r="10" fill="#e8c16a"/>
</svg>
